<svg xmlns="http://www.w3.org/2000/svg" viewBox="0 0 216 144"><defs><style>.cls-1{fill:#fff;}.cls-2{fill:#5c8c86;}.cls-3{fill:#2c292a;}.cls-4{fill:#f2d8be;}.cls-5{fill:#e18e94;}.cls-6{fill:#d25968;}.cls-7{fill:#b5777e;}.cls-8{fill:#fcfcfc;}.cls-9{fill:#5d8a84;}.cls-10{fill:#fefbfb;}.cls-11{fill:#fdf6f5;}</style></defs><title>2020</title><g id="Layer_1" data-name="Layer 1"><path class="cls-1" d="M0,103.19q0-51,0-102C0,.29.11,0,1.07,0Q108,0,214.93,0c1,0,1.07.29,1.07,1.14q0,51,0,102.05c-.32.37-.75.18-1.12.18-17.92,0-35.83,0-53.74,0-1.13,0-1.27-.25-1-1.31,1.88-8.8-.19-16.67-5.75-23.68A8.88,8.88,0,0,0,145.54,75c-1.26.19-2.52.42-3.78.6-.43.06-.86.15-.85-.58,0-5.28-.16-10.55.08-15.82.14-3.09-.79-5.58-3.78-7-1.45-.67-2.84-1.46-4.32-2-6.47-2.52-13.25-3.46-20.13-3.85-9.76-.54-19.48-.28-29.06,2a34,34,0,0,0-10.1,3.57,8.93,8.93,0,0,0-4.76,8.34c.12,14,0,28,.06,42,0,.94-.14,1.26-1.19,1.26q-33.28-.06-66.57,0C.77,103.37.34,103.56,0,103.19Zm104.52-63.8a2.74,2.74,0,0,0,1.44-.31,16.68,16.68,0,0,0,4.44-3,6.77,6.77,0,0,0,2.36-4.32c.21-2.49-1.33-4-3.25-5.15a25.53,25.53,0,0,0-8.33-2.83c-1.26-.26-1.32-.53-.44-1.49a20.86,20.86,0,0,1,6.94-5,2.59,2.59,0,0,0,1.47-3.07,2.41,2.41,0,0,0-2.67-1.71,4.93,4.93,0,0,0-1.81.58,24.5,24.5,0,0,0-8.93,7.25C93.68,23,94.36,26,97.34,27.69a23.31,23.31,0,0,0,5.23,1.62A10.93,10.93,0,0,1,106.75,31c.63.5.56.8.07,1.31a13.84,13.84,0,0,1-3.51,2.47,2.43,2.43,0,0,0-1.26,2.94A2.4,2.4,0,0,0,104.54,39.39Z" transform="translate(0 0)"/><path class="cls-2" d="M216,103.91q0,19.55,0,39.09c0,.79-.11,1-1,1Q108,144,1,144c-.85,0-1-.21-1-1q0-19.55,0-39.09c.24,0,.48,0,.72,0q33.53,0,67,0c.93,0,1.13.28,1.12,1.15,0,6.24,0,12.47,0,18.71a5.84,5.84,0,0,0,2.64,5.17,30.63,30.63,0,0,0,9.94,4.3,88.64,88.64,0,0,0,19.06,2.46,95.73,95.73,0,0,0,27.21-2.48,26.54,26.54,0,0,0,10-4.21,6,6,0,0,0,2.61-5.23c-.05-3.11,0-6.23,0-9.35,0-3.29,0-3.28,3.16-2a8.57,8.57,0,0,0,2.81,1,13.17,13.17,0,0,0,12.94-8.3,1.56,1.56,0,0,1,1.75-1.14q26.92,0,53.85,0C215.18,103.86,215.58,103.89,216,103.91Z" transform="translate(0 0)"/><path class="cls-3" d="M216,103.91c-.4,0-.8,0-1.2,0q-26.92,0-53.85,0a1.56,1.56,0,0,0-1.75,1.14,13.17,13.17,0,0,1-12.94,8.3,8.57,8.57,0,0,1-2.81-1c-3.16-1.25-3.16-1.26-3.16,2,0,3.12,0,6.24,0,9.35a6,6,0,0,1-2.61,5.23,26.54,26.54,0,0,1-10,4.21,95.73,95.73,0,0,1-27.21,2.48,88.64,88.64,0,0,1-19.06-2.46,30.63,30.63,0,0,1-9.94-4.3,5.84,5.84,0,0,1-2.64-5.17c0-6.24,0-12.47,0-18.71,0-.87-.19-1.15-1.12-1.15q-33.51,0-67,0c-.24,0-.48,0-.72,0v-.72c.32.37.75.18,1.12.18q33.28,0,66.57,0c1.05,0,1.2-.32,1.19-1.26,0-14,.06-28-.06-42a8.93,8.93,0,0,1,4.76-8.34,34,34,0,0,1,10.1-3.57c9.58-2.24,19.3-2.5,29.06-2,6.88.39,13.66,1.33,20.13,3.85,1.48.58,2.87,1.37,4.32,2,3,1.39,3.92,3.88,3.78,7-.24,5.27,0,10.54-.08,15.82,0,.73.42.64.85.58,1.26-.18,2.52-.41,3.78-.6a8.88,8.88,0,0,1,8.79,3.45c5.56,7,7.63,14.88,5.75,23.68-.23,1.06-.09,1.31,1,1.31,17.91,0,35.82,0,53.74,0,.37,0,.8.19,1.12-.18ZM69.88,59.38v1.47q0,30.7-.08,61.4c0,3.76,1,5.59,4.25,6.87a67.37,67.37,0,0,0,17.86,4.75,113.62,113.62,0,0,0,30.21-.73,38.7,38.7,0,0,0,14.9-5.25,4.32,4.32,0,0,0,2.23-3.94c0-1.4.06-2.79.07-4.19q.17-16.73.32-33.44.11-10.36.24-20.73c0-1.7,0-3.4,0-5.43a20.46,20.46,0,0,1-6.51,4c-7.7,2.82-15.7,3.82-23.84,4.06-8.81.26-17.57-.06-26.18-2.17-3.84-1-7.69-1.89-10.91-4.37C71.6,61,70.85,60.24,69.88,59.38Zm35.36-12c-1.84,0-3.68-.08-5.51,0A82.83,82.83,0,0,0,80.94,50.2c-3.42,1-6.74,2.28-9.37,4.83a2.81,2.81,0,0,0-.29,4.08,5.83,5.83,0,0,0,1.83,1.7,39.33,39.33,0,0,0,6,2.77,73.61,73.61,0,0,0,16.65,3.2A106.39,106.39,0,0,0,126.56,65c4.4-.9,8.6-2.4,12.1-5.42,1.6-1.38,1.72-3,.24-4.55a12.27,12.27,0,0,0-1.55-1.32,24.24,24.24,0,0,0-7.82-3.49A87.66,87.66,0,0,0,105.24,47.4Zm35.18,59.05a16.9,16.9,0,0,1,0,1.88c-.12,1.11.16,1.74,1.43,1.92a12.31,12.31,0,0,1,2.8,1,5.53,5.53,0,0,0,2.33.48c5.53-.15,9.87-3.27,11.4-8.59,2.41-8.41.66-16-4.59-23-2.61-3.47-6-4-9.9-3.36-1.06.18-2.41.25-3,.92s-.18,2.06-.19,3.13c0,2.62,0,2.74,2.55,2.88,4.08.23,6.27,2.84,7.22,6.25a26.31,26.31,0,0,1,0,13.16,4.9,4.9,0,0,1-3.52,3.88c-1.87.53-3.75.83-5.54-.33A1,1,0,0,0,140.42,106.45Zm.22-12.12c0,2.71,0,5.43,0,8.15,0,.75.2,1,.94.92,1.39-.06,2.79,0,4.19,0,1.08,0,2.44.34,3.14-.19s.62-2.07.77-3.17A20.77,20.77,0,0,0,148.56,89a5.25,5.25,0,0,0-4.21-3.5c-.94-.13-1.91-.06-2.87-.15-.69-.06-.87.18-.86.86C140.66,88.89,140.64,91.61,140.64,94.33Zm4.08,9.53c-1.11,0-2.23,0-3.35,0-.25,0-.59-.11-.7.28s.1.51.34.68c2.07,1.5,4.24,1.31,6.44.39a3.14,3.14,0,0,0,.83-.68c.13-.13.32-.27.21-.51s-.35-.16-.53-.16Z" transform="translate(0 0)"/><path class="cls-4" d="M104.54,39.39a2.4,2.4,0,0,1-2.49-1.68,2.43,2.43,0,0,1,1.26-2.94,13.84,13.84,0,0,0,3.51-2.47c.49-.51.56-.81-.07-1.31a10.93,10.93,0,0,0-4.18-1.68,23.31,23.31,0,0,1-5.23-1.62c-3-1.65-3.66-4.71-1.58-7.36a24.5,24.5,0,0,1,8.93-7.25,4.93,4.93,0,0,1,1.81-.58,2.41,2.41,0,0,1,2.67,1.71,2.59,2.59,0,0,1-1.47,3.07,20.86,20.86,0,0,0-6.94,5c-.88,1-.82,1.23.44,1.49a25.53,25.53,0,0,1,8.33,2.83c1.92,1.18,3.46,2.66,3.25,5.15a6.77,6.77,0,0,1-2.36,4.32,16.68,16.68,0,0,1-4.44,3A2.74,2.74,0,0,1,104.54,39.39Z" transform="translate(0 0)"/><path class="cls-5" d="M69.88,59.38c1,.86,1.72,1.61,2.56,2.25,3.22,2.48,7.07,3.42,10.91,4.37,8.61,2.11,17.37,2.43,26.18,2.17,8.14-.24,16.14-1.24,23.84-4.06a20.46,20.46,0,0,0,6.51-4c0,2,0,3.73,0,5.43q-.12,10.36-.24,20.73-.16,16.73-.32,33.44c0,1.4-.09,2.79-.07,4.19a4.32,4.32,0,0,1-2.23,3.94,38.7,38.7,0,0,1-14.9,5.25,113.62,113.62,0,0,1-30.21.73,67.37,67.37,0,0,1-17.86-4.75c-3.21-1.28-4.25-3.11-4.25-6.87q0-30.7.08-61.4Zm54.68,34a77,77,0,0,0,.26,8.65,37.12,37.12,0,0,0,.82,5.66c.17.57.11,1.52.87,1.51s.72-.95.88-1.53a40,40,0,0,0,1-8.65,126.24,126.24,0,0,0-.23-15.8,23,23,0,0,0-.85-5.39c-.16-.48-.08-1.21-.67-1.27s-.64.79-1,1.2a1.2,1.2,0,0,0-.08.35A60,60,0,0,0,124.6,86C124.4,88.3,124.56,90.6,124.56,93.42Zm2.66,27.19a10.24,10.24,0,0,0-.36-3.31c-.09-.26-.17-.59-.49-.62s-.53.31-.61.62a13.31,13.31,0,0,0,0,6.72c.08.31.17.68.56.68s.5-.37.6-.66A11.33,11.33,0,0,0,127.22,120.61Z" transform="translate(0 0)"/><path class="cls-6" d="M105.24,47.4a87.66,87.66,0,0,1,24.29,2.81,24.24,24.24,0,0,1,7.82,3.49A12.27,12.27,0,0,1,138.9,55c1.48,1.52,1.36,3.17-.24,4.55-3.5,3-7.7,4.52-12.1,5.42a106.39,106.39,0,0,1-30.84,1.79,73.61,73.61,0,0,1-16.65-3.2,39.33,39.33,0,0,1-6-2.77,5.83,5.83,0,0,1-1.83-1.7A2.81,2.81,0,0,1,71.57,55c2.63-2.55,6-3.83,9.37-4.83a82.83,82.83,0,0,1,18.79-2.78C101.56,47.32,103.4,47.4,105.24,47.4Z" transform="translate(0 0)"/><path class="cls-7" d="M140.42,106.45a1,1,0,0,1,1,.2c1.79,1.16,3.67.86,5.54.33a4.9,4.9,0,0,0,3.52-3.88,26.31,26.31,0,0,0,0-13.16c-1-3.41-3.14-6-7.22-6.25-2.56-.14-2.57-.26-2.55-2.88,0-1.07-.44-2.44.19-3.13s2-.74,3-.92c3.89-.68,7.29-.11,9.9,3.36,5.25,7,7,14.6,4.59,23-1.53,5.32-5.87,8.44-11.4,8.59a5.53,5.53,0,0,1-2.33-.48,12.31,12.31,0,0,0-2.8-1c-1.27-.18-1.55-.81-1.43-1.92A16.9,16.9,0,0,0,140.42,106.45Z" transform="translate(0 0)"/><path class="cls-8" d="M140.64,94.33c0-2.72,0-5.44,0-8.16,0-.68.17-.92.86-.86,1,.09,1.93,0,2.87.15a5.25,5.25,0,0,1,4.21,3.5,20.77,20.77,0,0,1,1.1,11.06c-.15,1.1,0,2.58-.77,3.17s-2.06.18-3.14.19c-1.4,0-2.8,0-4.19,0-.74,0-.95-.17-.94-.92C140.66,99.76,140.64,97,140.64,94.33Z" transform="translate(0 0)"/><path class="cls-9" d="M144.72,103.86H148c.18,0,.41-.06.53.16s-.08.38-.21.51a3.14,3.14,0,0,1-.83.68c-2.2.92-4.37,1.11-6.44-.39-.24-.17-.43-.36-.34-.68s.45-.27.7-.28C142.49,103.85,143.61,103.86,144.72,103.86Z" transform="translate(0 0)"/><path class="cls-10" d="M124.56,93.42c0-2.82-.16-5.12,0-7.38a60,60,0,0,1,.94-7.89,1.2,1.2,0,0,1,.08-.35c.33-.41.26-1.28,1-1.2s.51.79.67,1.27a23,23,0,0,1,.85,5.39,126.24,126.24,0,0,1,.23,15.8,40,40,0,0,1-1,8.65c-.16.58-.16,1.52-.88,1.53s-.7-.94-.87-1.51a37.12,37.12,0,0,1-.82-5.66A77,77,0,0,1,124.56,93.42Z" transform="translate(0 0)"/><path class="cls-11" d="M127.22,120.61a11.33,11.33,0,0,1-.33,3.43c-.1.29-.23.66-.6.66s-.48-.37-.56-.68a13.31,13.31,0,0,1,0-6.72c.08-.31.21-.65.61-.62s.4.36.49.62A10.24,10.24,0,0,1,127.22,120.61Z" transform="translate(0 0)"/></g></svg>